<?xml version="1.0" encoding="UTF-8"?>
<svg xmlns="http://www.w3.org/2000/svg" xmlns:xlink="http://www.w3.org/1999/xlink" width="65pt" height="62pt" viewBox="0 0 65 62" version="1.1">
<g id="surface8">
<path style=" stroke:none;fill-rule:nonzero;fill:rgb(39.215686%,58.431373%,92.941176%);fill-opacity:1;" d="M 22.359375 61.554688 C 22.359375 61.554688 64.722656 30.777344 64.722656 30.777344 C 64.722656 30.777344 22.359375 0 22.359375 0 C 22.359375 0 6.179688 49.796875 6.179688 49.796875 C 6.179688 49.796875 58.542969 49.796875 58.542969 49.796875 C 58.542969 49.796875 42.359375 0 42.359375 0 C 42.359375 0 0 30.777344 0 30.777344 C 0 30.777344 42.359375 61.554688 42.359375 61.554688 C 42.359375 61.554688 58.542969 11.753906 58.542969 11.753906 C 58.542969 11.753906 6.179688 11.753906 6.179688 11.753906 C 6.179688 11.753906 22.359375 61.554688 22.359375 61.554688 Z M 22.359375 61.554688 "/>
</g>
</svg>
