<?xml version="1.0" encoding="UTF-8"?>
<svg xmlns="http://www.w3.org/2000/svg" xmlns:xlink="http://www.w3.org/1999/xlink" width="116pt" height="116pt" viewBox="0 0 116 116" version="1.1">
<g id="surface13">
<path style=" stroke:none;fill-rule:nonzero;fill:rgb(18.431373%,30.980392%,30.980392%);fill-opacity:1;" d="M 63.152344 53.253906 C 63.152344 53.253906 82.3125 0 82.3125 0 C 82.3125 0 58.203125 51.203125 58.203125 51.203125 C 58.203125 51.203125 34.09375 0 34.09375 0 C 34.09375 0 53.253906 53.253906 53.253906 53.253906 C 53.253906 53.253906 0 34.09375 0 34.09375 C 0 34.09375 51.203125 58.203125 51.203125 58.203125 C 51.203125 58.203125 0 82.3125 0 82.3125 C 0 82.3125 53.253906 63.152344 53.253906 63.152344 C 53.253906 63.152344 34.09375 116.410156 34.09375 116.410156 C 34.09375 116.410156 58.203125 65.203125 58.203125 65.203125 C 58.203125 65.203125 82.3125 116.410156 82.3125 116.410156 C 82.3125 116.410156 63.152344 63.152344 63.152344 63.152344 C 63.152344 63.152344 116.410156 82.3125 116.410156 82.3125 C 116.410156 82.3125 65.203125 58.203125 65.203125 58.203125 C 65.203125 58.203125 116.410156 34.09375 116.410156 34.09375 C 116.410156 34.09375 63.152344 53.253906 63.152344 53.253906 Z M 63.152344 53.253906 "/>
</g>
</svg>
