<?xml version="1.0" encoding="UTF-8"?>
<svg xmlns="http://www.w3.org/2000/svg" xmlns:xlink="http://www.w3.org/1999/xlink" width="60pt" height="60pt" viewBox="0 0 60 60" version="1.1">
<g id="surface28">
<path style=" stroke:none;fill-rule:evenodd;fill:rgb(0%,0%,0%);fill-opacity:1;" d="M 60 30 C 60 46.570312 46.570312 60 30 60 C 13.429688 60 0 46.570312 0 30 C 0 13.429688 13.429688 0 30 0 C 46.570312 0 60 13.429688 60 30 Z M 60 30 "/>
<path style=" stroke:none;fill-rule:evenodd;fill:rgb(0%,100%,0%);fill-opacity:1;" d="M 55 30 C 55 43.808594 43.808594 55 30 55 C 16.191406 55 5 43.808594 5 30 C 5 16.191406 16.191406 5 30 5 C 43.808594 5 55 16.191406 55 30 Z M 55 30 "/>
<path style=" stroke:none;fill-rule:evenodd;fill:rgb(0%,0%,0%);fill-opacity:1;" d="M 50 30 C 50 41.046875 41.046875 50 30 50 C 18.953125 50 10 41.046875 10 30 C 10 18.953125 18.953125 10 30 10 C 41.046875 10 50 18.953125 50 30 Z M 50 30 "/>
<path style=" stroke:none;fill-rule:evenodd;fill:rgb(0%,100%,0%);fill-opacity:1;" d="M 45 30 C 45 38.285156 38.285156 45 30 45 C 21.714844 45 15 38.285156 15 30 C 15 21.714844 21.714844 15 30 15 C 38.285156 15 45 21.714844 45 30 Z M 45 30 "/>
<path style=" stroke:none;fill-rule:evenodd;fill:rgb(0%,0%,0%);fill-opacity:1;" d="M 40 30 C 40 35.523438 35.523438 40 30 40 C 24.476562 40 20 35.523438 20 30 C 20 24.476562 24.476562 20 30 20 C 35.523438 20 40 24.476562 40 30 Z M 40 30 "/>
<path style=" stroke:none;fill-rule:evenodd;fill:rgb(0%,100%,0%);fill-opacity:1;" d="M 35 30 C 35 32.761719 32.761719 35 30 35 C 27.238281 35 25 32.761719 25 30 C 25 27.238281 27.238281 25 30 25 C 32.761719 25 35 27.238281 35 30 Z M 35 30 "/>
</g>
</svg>
