<?xml version="1.0" encoding="UTF-8"?>
<svg xmlns="http://www.w3.org/2000/svg" xmlns:xlink="http://www.w3.org/1999/xlink" width="60pt" height="60pt" viewBox="0 0 60 60" version="1.1">
<g id="surface33">
<path style=" stroke:none;fill-rule:evenodd;fill:rgb(100%,0%,0%);fill-opacity:0.156863;" d="M 60 30 C 60 32.761719 46.570312 35 30 35 C 13.429688 35 0 32.761719 0 30 C 0 27.238281 13.429688 25 30 25 C 46.570312 25 60 27.238281 60 30 Z M 60 30 "/>
<path style=" stroke:none;fill-rule:evenodd;fill:rgb(100%,0%,0%);fill-opacity:0.156863;" d="M 55 30 C 55 35.523438 43.808594 40 30 40 C 16.191406 40 5 35.523438 5 30 C 5 24.476562 16.191406 20 30 20 C 43.808594 20 55 24.476562 55 30 Z M 55 30 "/>
<path style=" stroke:none;fill-rule:evenodd;fill:rgb(100%,0%,0%);fill-opacity:0.156863;" d="M 50 30 C 50 38.285156 41.046875 45 30 45 C 18.953125 45 10 38.285156 10 30 C 10 21.714844 18.953125 15 30 15 C 41.046875 15 50 21.714844 50 30 Z M 50 30 "/>
<path style=" stroke:none;fill-rule:evenodd;fill:rgb(100%,0%,0%);fill-opacity:0.156863;" d="M 45 30 C 45 41.046875 38.285156 50 30 50 C 21.714844 50 15 41.046875 15 30 C 15 18.953125 21.714844 10 30 10 C 38.285156 10 45 18.953125 45 30 Z M 45 30 "/>
<path style=" stroke:none;fill-rule:evenodd;fill:rgb(100%,0%,0%);fill-opacity:0.156863;" d="M 40 30 C 40 43.808594 35.523438 55 30 55 C 24.476562 55 20 43.808594 20 30 C 20 16.191406 24.476562 5 30 5 C 35.523438 5 40 16.191406 40 30 Z M 40 30 "/>
<path style=" stroke:none;fill-rule:evenodd;fill:rgb(100%,0%,0%);fill-opacity:0.156863;" d="M 35 30 C 35 46.570312 32.761719 60 30 60 C 27.238281 60 25 46.570312 25 30 C 25 13.429688 27.238281 0 30 0 C 32.761719 0 35 13.429688 35 30 Z M 35 30 "/>
</g>
</svg>
