<?xml version="1.0" encoding="UTF-8"?>
<svg xmlns="http://www.w3.org/2000/svg" xmlns:xlink="http://www.w3.org/1999/xlink" width="60pt" height="210pt" viewBox="0 0 60 210" version="1.1">
<g id="surface38">
<path style=" stroke:none;fill-rule:evenodd;fill:rgb(100%,0%,0%);fill-opacity:0.156863;" d="M 60 205 C 60 207.761719 46.570312 210 30 210 C 13.429688 210 0 207.761719 0 205 C 0 202.238281 13.429688 200 30 200 C 46.570312 200 60 202.238281 60 205 Z M 60 205 "/>
<path style=" stroke:none;fill-rule:evenodd;fill:rgb(100%,0%,0%);fill-opacity:0.156863;" d="M 55 190 C 55 195.523438 43.808594 200 30 200 C 16.191406 200 5 195.523438 5 190 C 5 184.476562 16.191406 180 30 180 C 43.808594 180 55 184.476562 55 190 Z M 55 190 "/>
<path style=" stroke:none;fill-rule:evenodd;fill:rgb(100%,0%,0%);fill-opacity:0.156863;" d="M 50 165 C 50 173.285156 41.046875 180 30 180 C 18.953125 180 10 173.285156 10 165 C 10 156.714844 18.953125 150 30 150 C 41.046875 150 50 156.714844 50 165 Z M 50 165 "/>
<path style=" stroke:none;fill-rule:evenodd;fill:rgb(100%,0%,0%);fill-opacity:0.156863;" d="M 45 130 C 45 141.046875 38.285156 150 30 150 C 21.714844 150 15 141.046875 15 130 C 15 118.953125 21.714844 110 30 110 C 38.285156 110 45 118.953125 45 130 Z M 45 130 "/>
<path style=" stroke:none;fill-rule:evenodd;fill:rgb(100%,0%,0%);fill-opacity:0.156863;" d="M 40 85 C 40 98.808594 35.523438 110 30 110 C 24.476562 110 20 98.808594 20 85 C 20 71.191406 24.476562 60 30 60 C 35.523438 60 40 71.191406 40 85 Z M 40 85 "/>
<path style=" stroke:none;fill-rule:evenodd;fill:rgb(100%,0%,0%);fill-opacity:0.156863;" d="M 35 30 C 35 46.570312 32.761719 60 30 60 C 27.238281 60 25 46.570312 25 30 C 25 13.429688 27.238281 0 30 0 C 32.761719 0 35 13.429688 35 30 Z M 35 30 "/>
</g>
</svg>
